# xmcd
#
# Track frame offsets:
# 150
# 18397
# 36442
# 51508
# 67784
# 86526
# 107272
# 132945
# 154816
# 173309
# 192596
# 214507
# 234594
# 254753
# 271432
# 286355
#
# Disc length: 4044 seconds
#
#
# Revision: 0
# Processed by: cddbd v1.5.2PL0 Copyright (c) Steve Scherf et al.
# Submitted via: FreeRIP 2.951 
#
DISCID=e00fca10
DTITLE=alexandre pires - éxitos..sólo para usted
DYEAR=2008
DGENRE=Pop
TTITLE0=amor verdadero
TTITLE1=cuando acaba el placer
TTITLE2=cuando es amor
TTITLE3=mi mitad ( take me now)
TTITLE4=santo santo (con gloria estefan)
TTITLE5=usted se me llevó la vida
TTITLE6=necesiadad
TTITLE7=es por amor
TTITLE8=ámame
TTITLE9=quitémonos la ropa
TTITLE10=sólo que me falta (con alejandro sans)
TTITLE11=en el silencio negro de la noche
TTITLE12=bum, bum, bum
TTITLE13=pena (con gloria gaynor)
TTITLE14=cosa del destino
TTITLE15=usted abusó
EXTD=
EXTT0=
EXTT1=
EXTT2=
EXTT3=
EXTT4=
EXTT5=
EXTT6=
EXTT7=
EXTT8=
EXTT9=
EXTT10=
EXTT11=
EXTT12=
EXTT13=
EXTT14=
EXTT15=
PLAYORDER=
